<svg width="799" height="799" viewBox="-226 -537 799 799" fill="none" xmlns="http://www.w3.org/2000/svg">
<path fill-rule="evenodd" clip-rule="evenodd" d="M79.5851 259.874C-88.0771 232.284 -218.57 75.2334 -226 -111.501C-231.306 -272.803 -131.559 -439.371 44.5649 -508.348C229.206 -583.692 444.592 -491.37 530.549 -321.582C579.363 -223.952 584.668 -115.744 552.834 -18.1218C551.772 -15.9995 550.711 -13.8771 549.65 -11.7548C480.674 171.832 281.202 291.706 88.0678 218.485C-2.13135 184.528 -70.0463 113.433 -106.129 25.3509C-172.983 -139.131 -94.4566 -343.907 77.457 -412.885C219.655 -470.188 371.369 -408.64 438.222 -275.992C474.301 -204.894 478.546 -125.309 449.894 -49.9949C402.141 78.4044 263.128 162.212 128.393 111.307C64.7218 86.9002 18.0346 38.0861 -7.43748 -23.4601C-49.8844 -129.575 -0.00927734 -262.193 111.414 -306.762C202.676 -343.902 300.305 -303.578 342.716 -218.688C363.939 -177.302 367.123 -131.669 351.206 -88.1631C323.615 -16.0038 245.09 32.8135 168.682 4.16138C132.602 -9.63416 106.073 -38.2855 92.2777 -72.243C72.1157 -119.996 95.4612 -180.484 145.336 -200.642C185.661 -216.56 229.167 -198.52 248.271 -161.379C256.761 -144.4 252.516 -124.238 241.904 -111.504C216.436 -81.7903 175.05 -109.381 168.683 -138.033C153.826 -113.626 166.561 -83.9132 185.662 -70.1177C238.72 -28.7319 323.617 -105.136 285.409 -180.476C256.758 -236.718 190.967 -263.244 129.42 -238.84C58.3219 -210.189 24.3677 -125.294 53.0158 -56.3166C71.0556 -11.7476 106.074 24.3345 152.763 42.376C251.455 79.5167 354.351 20.091 390.434 -74.35C410.595 -128.469 407.412 -185.771 380.883 -237.77C327.825 -341.767 207.916 -390.578 95.4563 -344.947C-37.1937 -291.889 -97.678 -134.866 -45.6791 -7.5296C-17.0277 64.6297 38.152 121.932 112.435 149.522C269.486 208.948 432.874 113.442 490.178 -36.1818C522.014 -122.138 516.708 -213.4 476.383 -294.019C399.978 -445.765 224.913 -516.836 61.494 -451.071C-79.6414 -394.828 -165.566 -255.811 -171.934 -113.653C-178.301 49.7667 -77.4921 203.606 79.5354 259.848L79.5851 259.874Z" fill="#FE2C2C"/>
</svg>
